<svg width="20" height="20" viewBox="0 0 20 20" fill="none" xmlns="http://www.w3.org/2000/svg">
<path d="M9.74759 6.49862C7.95726 6.49862 6.49621 7.95967 6.49621 9.75C6.49621 11.5403 7.95726 13.0014 9.74759 13.0014C11.5379 13.0014 12.999 11.5403 12.999 9.75C12.999 7.95967 11.5379 6.49862 9.74759 6.49862ZM19.4993 9.75C19.4993 8.40359 19.5115 7.06938 19.4359 5.72541C19.3603 4.16435 19.0042 2.77891 17.8626 1.63739C16.7187 0.493433 15.3357 0.139757 13.7746 0.0641433C12.4282 -0.0114703 11.094 0.00072551 9.75003 0.00072551C8.40362 0.00072551 7.06941 -0.0114703 5.72544 0.0641433C4.16438 0.139757 2.77895 0.495872 1.63742 1.63739C0.493464 2.78135 0.139787 4.16435 0.0641738 5.72541C-0.0114397 7.07182 0.000756028 8.40603 0.000756028 9.75C0.000756028 11.094 -0.0114397 12.4306 0.0641738 13.7746C0.139787 15.3356 0.495903 16.7211 1.63742 17.8626C2.78138 19.0066 4.16438 19.3602 5.72544 19.4359C7.07185 19.5115 8.40606 19.4993 9.75003 19.4993C11.0964 19.4993 12.4307 19.5115 13.7746 19.4359C15.3357 19.3602 16.7211 19.0041 17.8626 17.8626C19.0066 16.7186 19.3603 15.3356 19.4359 13.7746C19.5139 12.4306 19.4993 11.0964 19.4993 9.75V9.75ZM9.74759 14.7527C6.97916 14.7527 4.7449 12.5184 4.7449 9.75C4.7449 6.98157 6.97916 4.74731 9.74759 4.74731C12.516 4.74731 14.7503 6.98157 14.7503 9.75C14.7503 12.5184 12.516 14.7527 9.74759 14.7527ZM14.9552 5.71077C14.3088 5.71077 13.7868 5.18879 13.7868 4.54242C13.7868 3.89604 14.3088 3.37407 14.9552 3.37407C15.6015 3.37407 16.1235 3.89604 16.1235 4.54242C16.1237 4.6959 16.0936 4.84792 16.035 4.98976C15.9763 5.13159 15.8903 5.26047 15.7818 5.369C15.6732 5.47753 15.5443 5.56358 15.4025 5.62223C15.2607 5.68087 15.1087 5.71096 14.9552 5.71077V5.71077Z" fill="#31352B"/>
</svg>
